<svg fill="none" height="32" viewBox="0 0 32 32" width="32" xmlns="http://www.w3.org/2000/svg"><path d="m16 0c-13.176 0-16 2.824-16 16s2.824 16 16 16 16-2.824 16-16-2.824-16-16-16z" fill="#000"/><g fill="#fff"><path clip-rule="evenodd" d="m15.3567 21.8c.1039-.0259.21.0361.237.1386.0376.1423.1001.284.1799.4112.136.2167.2595.2825.3758.2825.1162-.0001.2391-.0661.375-.2825.0797-.127.1431-.2684.1806-.4104.0269-.1017.1314-.1633.2348-.1386l.9657.2305c.0501.012.0935.0431.1204.0866.0269.0436.035.0964.0229.1461-.07.2859-.1953.5627-.3483.8066-.2428.3867-.7331.9293-1.5511.9294-.8182 0-1.3091-.5427-1.5518-.9294-.1148-.183-.2139-.3845-.2859-.5942l-.0625-.2124c-.0023-.0789.0468-.1765.0694-.1973.0576-.0416.2256-.0716.2256-.0716l.3323-.0783.3316-.0791c.0722-.0176.1074-.0273.1486-.0377z" fill-rule="evenodd"/><path d="m11.8918 16.8179c.5956 0 1.0783.4772 1.0785 1.0657 0 .5887-.4828 1.0665-1.0785 1.0665-.5957-.0001-1.0785-.4779-1.0785-1.0665.0002-.5884.4829-1.0656 1.0785-1.0657z"/><path d="m20.0282 16.8179c.5956 0 1.0791.4772 1.0793 1.0657 0 .5887-.4836 1.0665-1.0793 1.0665-.5956-.0002-1.0785-.4779-1.0785-1.0665.0002-.5883.4831-1.0655 1.0785-1.0657z"/><path clip-rule="evenodd" d="m17.3796 8.03161c.0757-.04925.1788-.04094.2454.02485l.702.69441c.0366.03615.0571.08521.0571.13632 0 .05106-.0206.10022-.0571.13633l-.8476.8375h1.0351c.5075.00002.9449.10971 1.3064.32538.3624.2162.6053.5129.7637.8187.302.5832.3125 1.2327.3125 1.5447v1.5974c1.7702.3544 3.1029 1.9008 3.1029 3.7545-.0002 2.1154-1.7357 3.8305-3.8765 3.8306-1.9087 0-3.4944-1.3634-3.8163-3.158h-.6144c-.3219 1.7946-1.9076 3.158-3.8163 3.158-2.14081-.0001-3.8763-1.7152-3.8765-3.8306.00003-1.9317 1.44715-3.5289 3.3285-3.7921v-1.4657c-.9065-.2775-1.56472-1.1121-1.56478-2.099.00003-1.21372.99578-2.19772 2.22408-2.19772 1.2281.0002 2.2233.98412 2.2233 2.19772 0 .9627-.6271 1.7785-1.4992 2.0757v1.5402c1.5144.3287 2.6964 1.5315 2.9771 3.0465h.622c.2944-1.5893 1.5806-2.8361 3.202-3.0894v-1.5681c0-.3032-.0235-.6566-.1609-.9219-.0613-.1182-.1396-.2075-.2462-.2711-.1077-.0643-.2876-.128-.5914-.128h-1.0351l.8476.8375c.0366.0361.0571.0852.0571.1363s-.0206.1002-.0571.1363l-.702.6944c-.0761.0752-.1997.075-.2759 0l-2.3804-2.3521c-.0365-.0361-.0571-.0852-.0571-.1363s.0206-.1002.0571-.1363l2.3804-2.35214zm-5.5031 7.40649c-1.3767.0001-2.49232 1.1033-2.49235 2.4636.0002 1.3602 1.11575 2.4627 2.49235 2.4628 1.3767 0 2.493-1.1025 2.4932-2.4628-.0001-1.3604-1.1164-2.4636-2.4932-2.4636zm8.247 0c-1.3768 0-2.4931 1.1032-2.4932 2.4636.0002 1.3603 1.1165 2.4628 2.4932 2.4628 1.3766-.0001 2.4922-1.1026 2.4924-2.4628-.0001-1.3603-1.1157-2.4635-2.4924-2.4636zm-8.1357-5.72394c-.464 0-.8407.37224-.8407.83074.0001.4585.3767.83.8407.83.4639-.0002.8399-.3716.8399-.83s-.376-.83054-.8399-.83074z" fill-rule="evenodd"/></g></svg>